<svg width="583" height="583" viewBox="0 0 583 583" fill="none" xmlns="http://www.w3.org/2000/svg">
<path d="M52.0215 287.912L78.0323 317.511L87.8985 308.541L45.7431 261.901L0 303.16L8.96923 313.026L38.5677 286.118C36.7738 403.615 117.497 510.349 233.2 537.257L235.891 523.803C126.466 498.689 50.2277 398.234 52.0215 287.912Z" fill="white"/>
<path d="M295.088 52.0215L265.489 78.0323L274.459 87.8985L321.099 45.7431L279.84 0L269.974 8.96923L296.882 38.5677C179.385 36.7738 72.6509 117.497 45.7432 233.2L59.197 235.891C84.3109 126.466 184.766 50.2277 295.088 52.0215Z" fill="white"/>
<path d="M530.979 295.088L504.968 265.489L495.102 274.459L537.258 321.099L583.898 278.943L574.928 269.077L545.33 295.985C546.227 179.385 465.504 72.6508 349.801 45.7431L347.11 59.197C456.535 84.3108 532.773 184.766 530.979 295.088Z" fill="white"/>
<path d="M287.911 530.979L317.51 504.968L308.54 495.102L261.9 537.257L304.056 583.897L313.922 574.928L287.014 545.329C288.808 545.329 290.602 545.329 292.396 545.329C408.099 545.329 511.245 464.606 538.153 350.697L524.699 348.006C498.688 456.534 398.233 532.772 287.911 530.979Z" fill="white"/>
</svg>
