<svg width="94" height="94" viewBox="0 0 94 94" fill="none" xmlns="http://www.w3.org/2000/svg">
<path d="M30.584 73.2917C28.1943 73.2917 25.9349 72.833 23.8058 71.9157C21.6766 70.9983 19.8136 69.7412 18.2224 68.1444C16.6312 66.5475 15.3684 64.6901 14.4284 62.5836C13.4941 60.4715 13.0241 58.2291 13.0241 55.8394C13.0241 53.4951 13.4658 51.298 14.3605 49.2538C15.2495 47.2095 16.4783 45.4201 18.0469 43.8856C19.6154 42.351 21.4388 41.1448 23.5226 40.2728C25.6065 39.4007 27.8433 38.9647 30.2272 38.9647C32.6622 38.9647 34.9442 39.4121 37.0734 40.3068C39.2025 41.2015 41.0542 42.4189 42.6228 43.9535C44.1913 45.4881 45.4428 47.3001 46.3771 49.3897C47.3114 51.4792 47.7815 53.7159 47.7815 56.0999V56.8021H14.4228C14.6096 58.9312 15.1589 60.9245 16.0763 62.7818C16.9879 64.6335 18.1714 66.2474 19.6211 67.6064C21.0707 68.9711 22.7469 70.047 24.6439 70.8341C26.5408 71.6212 28.5398 72.0176 30.6463 72.0176C32.0506 72.0176 33.421 71.8477 34.7517 71.508C36.0881 71.1682 37.3395 70.6869 38.506 70.0697C39.6725 69.4524 40.7031 68.7163 41.5978 67.8612C42.4869 67.0118 43.189 66.0718 43.7043 65.0469L45.0407 65.364C44.5254 66.5135 43.7893 67.5724 42.8266 68.5294C41.864 69.4864 40.7428 70.3188 39.4573 71.021C38.1663 71.7232 36.7676 72.2781 35.2443 72.6858C33.7324 73.0879 32.1752 73.2917 30.584 73.2917ZM46.3148 55.5167C46.1732 53.3026 45.658 51.2527 44.7689 49.3783C43.8799 47.504 42.719 45.8958 41.292 44.5538C39.8651 43.2117 38.2116 42.1585 36.3429 41.3883C34.4686 40.6239 32.4583 40.2388 30.3008 40.2388C28.149 40.2388 26.1331 40.6239 24.2588 41.3883C22.3845 42.1528 20.7366 43.223 19.3096 44.5877C17.8827 45.9524 16.7445 47.572 15.9064 49.4463C15.0627 51.3206 14.57 53.3479 14.4341 55.5223H46.3148V55.5167Z" fill="white"/>
<path d="M81.1571 72.6518H44.2593V66.5644L58.7443 53.4554C61.117 51.3206 63.0423 49.4746 64.5316 47.9117C66.0152 46.3488 67.176 44.9274 68.0028 43.6364C68.8295 42.3509 69.3901 41.1335 69.6732 39.9896C69.9564 38.8458 70.1036 37.6113 70.1036 36.2806C70.1036 35.0291 69.9167 33.84 69.5487 32.7074C69.1749 31.5749 68.603 30.5783 67.8329 29.7232C67.0628 28.8682 66.0605 28.1887 64.8317 27.696C63.6029 27.2033 62.1306 26.9542 60.4148 26.9542C58.0422 26.9542 55.8847 27.4355 53.9424 28.3982C52.0001 29.3608 50.2164 30.6123 48.5855 32.1468L44.4688 27.662C46.581 25.6348 49.0216 24.0096 51.7793 22.7865C54.537 21.5633 57.742 20.9518 61.4001 20.9518C63.886 20.9518 66.1511 21.2915 68.1953 21.9654C70.2395 22.6449 72.0006 23.6189 73.4899 24.893C74.9735 26.1671 76.123 27.73 76.9384 29.576C77.7538 31.422 78.1616 33.5059 78.1616 35.8219C78.1616 37.7755 77.8784 39.5819 77.3065 41.2467C76.7346 42.9115 75.8682 44.5707 74.713 46.2242C73.5578 47.8777 72.0969 49.5878 70.3414 51.3546C68.586 53.1213 66.5078 55.0636 64.1069 57.1701L53.9481 66.185H81.1628V72.6518H81.1571Z" fill="white"/>
</svg>
