<svg width="583" height="583" viewBox="0 0 583 583" fill="none" xmlns="http://www.w3.org/2000/svg">
<g clip-path="url(#clip0)">
<path d="M52.0215 287.912L78.0323 317.511L87.8985 308.541L45.7431 261.901L0 303.16L8.96923 313.026L38.5677 286.118C36.7738 403.615 117.497 510.349 233.2 537.257L235.891 523.803C126.466 498.689 50.2277 398.234 52.0215 287.912Z" fill="white"/>
<path d="M295.088 52.0215L265.489 78.0323L274.459 87.8985L321.099 45.7431L279.84 0L269.974 8.96923L296.882 38.5677C179.385 36.7738 72.6509 117.497 45.7432 233.2L59.197 235.891C84.3109 126.466 184.766 50.2277 295.088 52.0215Z" fill="white"/>
<path d="M530.979 295.088L504.968 265.489L495.102 274.459L537.258 321.099L583.898 278.943L574.928 269.077L545.33 295.985C546.227 179.385 465.504 72.6508 349.801 45.7431L347.11 59.197C456.535 84.3108 532.773 184.766 530.979 295.088Z" fill="white"/>
<path d="M287.911 530.979L317.51 504.968L308.54 495.102L261.9 537.257L304.056 583.897L313.922 574.928L287.014 545.329C288.808 545.329 290.602 545.329 292.396 545.329C408.099 545.329 511.245 464.606 538.153 350.697L524.699 348.006C498.688 456.534 398.233 532.772 287.911 530.979Z" fill="white"/>
<path d="M229.613 198.22C229.613 232.303 257.418 260.108 291.501 260.108C325.584 260.108 353.388 232.303 353.388 198.22C353.388 164.137 325.584 136.332 291.501 136.332C257.418 136.332 229.613 164.137 229.613 198.22ZM339.935 198.22C339.935 225.128 318.408 246.654 291.501 246.654C264.593 246.654 243.067 225.128 243.067 198.22C243.067 171.312 264.593 149.786 291.501 149.786C318.408 149.786 339.935 171.312 339.935 198.22Z" fill="white"/>
<path d="M408.998 302.263C402.72 291.5 392.854 283.428 381.194 278.943L337.244 263.695L297.78 336.346H284.326L244.861 263.695L200.912 278.943C189.252 283.428 178.489 291.5 173.107 302.263C166.829 313.026 164.138 322.892 164.138 332.758C164.138 332.758 159.653 373.12 157.86 411.688V418.863H424.246V411.688C422.452 373.12 417.967 333.655 417.967 333.655C417.967 322.892 415.277 313.026 408.998 302.263ZM377.606 405.409L374.915 362.357L361.461 363.254L364.152 405.409H218.85L221.541 363.254L208.087 362.357L205.397 405.409H172.21C174.004 369.532 177.592 334.552 177.592 333.655C177.592 323.789 181.18 314.82 184.767 309.438C189.252 301.366 196.427 295.088 205.397 292.397L238.583 280.737L276.253 350.697H304.955L342.626 280.737L375.812 292.397C384.781 295.985 391.957 302.263 396.441 309.438C400.926 317.511 403.617 326.48 403.617 334.552C403.617 334.552 407.204 369.532 408.998 405.409H377.606V405.409Z" fill="white"/>
</g>
<defs>
<clipPath id="clip0">
<rect width="583" height="583" rx="2" fill="white"/>
</clipPath>
</defs>
</svg>
