<svg width="583" height="583" viewBox="0 0 583 583" fill="none" xmlns="http://www.w3.org/2000/svg">
<path d="M229.613 198.22C229.613 232.303 257.418 260.108 291.501 260.108C325.584 260.108 353.388 232.303 353.388 198.22C353.388 164.137 325.584 136.332 291.501 136.332C257.418 136.332 229.613 164.137 229.613 198.22ZM339.935 198.22C339.935 225.128 318.408 246.654 291.501 246.654C264.593 246.654 243.067 225.128 243.067 198.22C243.067 171.312 264.593 149.786 291.501 149.786C318.408 149.786 339.935 171.312 339.935 198.22Z" fill="white"/>
<path d="M408.998 302.263C402.72 291.5 392.854 283.428 381.194 278.943L337.244 263.695L297.78 336.346H284.326L244.861 263.695L200.912 278.943C189.252 283.428 178.489 291.5 173.107 302.263C166.829 313.026 164.138 322.892 164.138 332.759C164.138 332.759 159.653 373.12 157.86 411.688V418.863H424.246V411.688C422.452 373.12 417.967 333.655 417.967 333.655C417.967 322.892 415.277 313.026 408.998 302.263ZM377.606 405.409L374.915 362.357L361.461 363.254L364.152 405.409H218.85L221.541 363.254L208.087 362.357L205.397 405.409H172.21C174.004 369.532 177.592 334.552 177.592 333.655C177.592 323.789 181.18 314.82 184.767 309.439C189.252 301.366 196.427 295.088 205.397 292.397L238.583 280.737L276.253 350.697H304.955L342.626 280.737L375.812 292.397C384.781 295.985 391.957 302.263 396.441 309.439C400.926 317.511 403.617 326.48 403.617 334.552C403.617 334.552 407.204 369.532 408.998 405.409H377.606V405.409Z" fill="white"/>
</svg>
